<?xml version="1.0" encoding="UTF-8"?><svg id="uuid-6b77c5a0-5406-4a2a-a0a3-d3e446b1283e" xmlns="http://www.w3.org/2000/svg" viewBox="0 0 1224 1224"><path d="M142.71158,538.97515c.00026-.00247,.09242-.86204,.09242-.86204,.163-.42076,.47516-.6499,.51087-.69964,4.05004-5.6455,8.08779-11.30328,12.12562-16.96107,2.98365-4.18068,52.54768-69.32129,58.44349-75.13466,.58758-.57937,1.61142-1.45741,3.03137-1.61999,1.92843-.22079,3.64145,.98373,4.73155,1.96974,120.42843,121.53388,240.85689,243.06768,361.28532,364.60156,.33326,.31821,2.88867,2.84395,2.55413,6.71825-.35649,4.12772-3.68389,6.20251-4.02292,6.40581-30.84058,23.81168-57.99921,43.94157-88.83979,67.75325-.93934,.6278-3.54793,2.19188-7.21624,2.15247-3.91981-.0421-6.62188-1.88902-7.5061-2.55173-4.43083-4.98316-11.25279-12.58735-19.71321-21.73247-19.1092-20.65559-31.8691-32.73627-42.43967-44.03513-25.65037-27.41759-50.13472-55.90299-76.21461-82.91563-15.34489-15.8937-35.65692-36.63499-35.657-36.63507-3.58587-3.67033-6.7438-6.89848-7.16313-7.32635-.00007-.00007-154.19395-157.33058-154.00211-159.12731Z" fill="#ed1943"/><path d="M577.7699,459.32173c-18.2156-12.61433-37.49865-23.64468-57.68851-32.78121-6.46213-2.92688-10.49092-4.59121-18.14674-7.44922-6.7261-2.5022-13.52106-4.80929-20.38496-6.8983-10.51383-3.19085-21.17695-5.86525-31.94326-8.10348-6.96716-1.43475-13.96879-2.6744-21.00482-3.71887-.58532-.09184-2.49071-.34433-3.19085-.44766h.05738c-.0344,0-.06887-.01149-.09184-.01149h-.06887c-.0344-.01149-.05738-.01149-.08035-.01149-.04589-.01142-.06887-.01142-.06887-.01142-.45908-.05745-.90674-.11482-1.36589-.1722-2.11192-.25248-4.2239-.49355-6.34731-.72312-5.53241-.5739-11.06482-1.03298-16.62014-1.36589-41.14872-2.47922-81.39064,1.67582-119.50915,15.11652l324.38021,360.92617c-8.19532-105.40255-19.29454-208.95723-27.92603-314.34837Z" fill="#ed1943"/><path d="M585.08012,415.70119c-26.50555-12.93605-52.10496-27.67754-79.21429-38.35736-101.86854-40.08752-203.05772-38.95917-302.96282,4.96371-7.92936,3.45986-15.93384,7.22041-23.86274,11.28163-1.66109,.82721-3.32264,1.88027-4.90814,3.15873-3.70058,2.70794-7.09835,6.31791-9.51486,10.07846-21.59694,33.69432-42.66569,67.76506-63.96074,101.76052-16.76392,27.00044-15.25355,40.16234,5.81474,62.19907,58.37231,60.92107,116.5939,122.14237,174.81549,183.28883,38.66322,40.53876,111.15664,116.7274,163.41232,171.85709l-30.88504,21.35963c-44.40237-46.55554-99.37691-104.09158-133.81135-140.19316-66.90545-70.24669-133.58459-140.71923-200.64121-210.66524-30.13008-31.36326-34.0565-66.03536-10.3454-104.31743,15.02725-24.29342,29.5263-48.96234,45.61085-72.35327,11.93091-17.44852,21.06829-35.49931,25.82572-55.05395,3.39823-13.68843,4.68184-28.05396,3.32264-43.39681v-.75192c-.75496-11.35691,2.79399-21.88662,10.04351-30.76144,16.00897-19.78049,37.00167-23.46575,63.88469-10.98095,22.35236-28.0535,47.64942-31.3628,77.85509-10.22857,10.94965-11.50702,23.78715-17.52426,39.34305-16.17052,15.93338,1.42902,27.26051,10.75556,36.85095,23.91746,12.38443-11.2068,25.90131-16.09523,41.15532-13.38775,15.63149,2.78277,26.2032,13.46258,35.03823,26.92562,13.89481-9.10068,27.94034-12.18412,42.51452-6.76916,14.27229,5.34014,24.54211,15.94467,31.03667,30.3102,29.52584-7.37098,47.34707-.52653,61.99684,23.31518,13.36616,21.73605,13.74363,59.56687,1.58596,78.9714Z" fill="#ed1943"/><g><path d="M1147.78901,928.67117c-64.77481-.44768-125.78546-.75448-186.79144-1.6349-4.53932-.14624-9.82834-3.8552-13.34686-7.43704-99.15583-103.85427-197.97837-207.8211-296.91173-311.7887l193.7696,1.33922c19.12621,20.21516,38.36325,40.43108,57.6003,60.647,78.15707,82.24911,156.4251,164.38411,234.5815,246.63321,3.07837,3.12001,5.93416,6.46753,11.09863,12.24122Z" fill="#1f0"/><path d="M939.81345,623.48109c14.21773-1.2841,27.18723-1.18257,39.6216-3.80981,42.58414-8.99759,72.64795-49.54023,69.9704-92.99982-2.94462-47.79453-35.33661-85.21694-80.34188-87.3475-56.2841-2.66445-112.76903-3.40981-169.08097-1.75928-27.68851,.81164-47.47833-6.68569-65.97986-28.63156-27.9566-33.16102-59.37831-63.18158-89.29176-94.57325-2.81731-2.95652-5.38026-6.17341-10.04494-11.56004,6.58135,.04549,10.53029,.0727,14.47927,.10007,105.25236,.73002,210.50561,1.35452,315.7569,2.21702,129.13163,1.05813,230.21458,124.08608,210.7945,256.6673-11.2674,76.92233-51.64333,132.45243-116.95288,169.55792-8.06386,4.58161-13.2319,4.72419-20.2286-2.90312-32.17596-35.07591-65.11829-69.39642-98.70177-104.95795Z" fill="#1f0"/></g><rect width="1224" height="1224" fill="none"/></svg>